<svg width="42" height="34" viewBox="0 0 42 34" fill="none" xmlns="http://www.w3.org/2000/svg">
<path d="M9 15V23M33 11V19M31 1C35.8974 1 38.5463 1.74952 39.8642 2.33088C40.0398 2.40831 40.1275 2.44702 40.3808 2.68874C40.5326 2.83364 40.8098 3.25879 40.8811 3.45618C41 3.78548 41 3.96548 41 4.32548V25.8223C41 27.6398 41 28.5486 40.7275 29.0157C40.4502 29.4909 40.1828 29.7118 39.6639 29.8944C39.1537 30.0739 38.1239 29.876 36.0644 29.4803C34.6228 29.2033 32.913 29 31 29C25 29 19 33 11 33C6.10259 33 3.45373 32.2505 2.13577 31.6691C1.96025 31.5917 1.87249 31.553 1.6192 31.3113C1.46737 31.1664 1.19024 30.7412 1.11894 30.5438C1 30.2145 1 30.0345 1 29.6745L1 8.17771C1 6.36017 1 5.4514 1.27256 4.98429C1.5498 4.50913 1.81718 4.28823 2.33612 4.10562C2.84627 3.9261 3.87607 4.12397 5.93566 4.5197C7.37724 4.79668 9.08696 5 11 5C17 5 23 1 31 1ZM26 17C26 19.7614 23.7614 22 21 22C18.2386 22 16 19.7614 16 17C16 14.2386 18.2386 12 21 12C23.7614 12 26 14.2386 26 17Z" stroke="#4F2378" stroke-width="2" stroke-linecap="round" stroke-linejoin="round"/>
</svg>
